<svg xmlns="http://www.w3.org/2000/svg" viewBox="0 0 800 400" width="800" height="400">
  <style>
    @keyframes drawLine {
      to { stroke-dashoffset: 0; }
    }
    @keyframes fadeInPoint {
      from { opacity: 0; }
      to { opacity: 1; }
    }
    .data-line-0 {
      stroke-dasharray: 1048;
      stroke-dashoffset: 1048;
      animation: drawLine 2s ease-out forwards;
    }
    .data-point {
      opacity: 0;
      animation: fadeInPoint 0.5s ease-out forwards;
    }
    .chart-bg { fill: #fff; }
    .chart-text { fill: #24292e; }
    .chart-muted { fill: #6a737d; }
    .chart-grid { stroke: #eee; }
    .chart-axis { stroke: #6a737d; }
    @media (prefers-color-scheme: dark) {
      .chart-bg { fill: #0d1117; }
      .chart-text { fill: #e6edf3; }
      .chart-muted { fill: #8b949e; }
      .chart-grid { stroke: #21262d; }
      .chart-axis { stroke: #8b949e; }
    }
  </style>
  <rect width="800" height="400" class="chart-bg" />
  <text x="400" y="14" text-anchor="middle" class="chart-text" font-size="16" font-weight="bold" font-family="-apple-system, BlinkMacSystemFont, 'Segoe UI', Helvetica, Arial, sans-serif">Growth Forecast</text>
  <g class="legend">
    <rect x="220" y="31" width="12" height="3" fill="#dfb317" />
    <line x1="220" y1="32.5" x2="232" y2="32.5" stroke="#dfb317" stroke-width="2" />
    <text x="236" y="36" class="chart-text" font-size="10" font-family="-apple-system, BlinkMacSystemFont, 'Segoe UI', Helvetica, Arial, sans-serif">Star History</text>
    <rect x="340" y="31" width="12" height="3" fill="#28a745" rx="1" />
    <line x1="340" y1="32.5" x2="352" y2="32.5" stroke="#28a745" stroke-width="2" stroke-dasharray="4,2" />
    <text x="356" y="36" class="chart-text" font-size="10" font-family="-apple-system, BlinkMacSystemFont, 'Segoe UI', Helvetica, Arial, sans-serif">Linear Regression</text>
    <rect x="460" y="31" width="12" height="3" fill="#d73a49" rx="1" />
    <line x1="460" y1="32.5" x2="472" y2="32.5" stroke="#d73a49" stroke-width="2" stroke-dasharray="4,2" />
    <text x="476" y="36" class="chart-text" font-size="10" font-family="-apple-system, BlinkMacSystemFont, 'Segoe UI', Helvetica, Arial, sans-serif">Weighted Moving Average</text>
  </g>
  <g class="grid">
    <line x1="60" y1="350" x2="770" y2="350" class="chart-grid" stroke-opacity="0.3" />
    <text x="52" y="354" text-anchor="end" class="chart-muted" font-size="11" font-family="-apple-system, BlinkMacSystemFont, 'Segoe UI', Helvetica, Arial, sans-serif">0</text>
    <line x1="60" y1="292.5287356321839" x2="770" y2="292.5287356321839" class="chart-grid" stroke-opacity="0.3" />
    <text x="52" y="296.5287356321839" text-anchor="end" class="chart-muted" font-size="11" font-family="-apple-system, BlinkMacSystemFont, 'Segoe UI', Helvetica, Arial, sans-serif">50</text>
    <line x1="60" y1="235.0574712643678" x2="770" y2="235.0574712643678" class="chart-grid" stroke-opacity="0.3" />
    <text x="52" y="239.0574712643678" text-anchor="end" class="chart-muted" font-size="11" font-family="-apple-system, BlinkMacSystemFont, 'Segoe UI', Helvetica, Arial, sans-serif">100</text>
    <line x1="60" y1="177.58620689655174" x2="770" y2="177.58620689655174" class="chart-grid" stroke-opacity="0.3" />
    <text x="52" y="181.58620689655174" text-anchor="end" class="chart-muted" font-size="11" font-family="-apple-system, BlinkMacSystemFont, 'Segoe UI', Helvetica, Arial, sans-serif">150</text>
    <line x1="60" y1="120.11494252873561" x2="770" y2="120.11494252873561" class="chart-grid" stroke-opacity="0.3" />
    <text x="52" y="124.11494252873561" text-anchor="end" class="chart-muted" font-size="11" font-family="-apple-system, BlinkMacSystemFont, 'Segoe UI', Helvetica, Arial, sans-serif">200</text>
    <line x1="60" y1="62.643678160919535" x2="770" y2="62.643678160919535" class="chart-grid" stroke-opacity="0.3" />
    <text x="52" y="66.64367816091954" text-anchor="end" class="chart-muted" font-size="11" font-family="-apple-system, BlinkMacSystemFont, 'Segoe UI', Helvetica, Arial, sans-serif">250</text>
  </g>
  <g class="milestones">
    
  </g>
  <g class="x-axis">
    <text x="60" y="370" text-anchor="middle" class="chart-muted" font-size="11" font-family="-apple-system, BlinkMacSystemFont, 'Segoe UI', Helvetica, Arial, sans-serif">Jan 10</text>
    <text x="146.06060606060606" y="370" text-anchor="middle" class="chart-muted" font-size="11" font-family="-apple-system, BlinkMacSystemFont, 'Segoe UI', Helvetica, Arial, sans-serif">Jul 11</text>
    <text x="232.12121212121212" y="370" text-anchor="middle" class="chart-muted" font-size="11" font-family="-apple-system, BlinkMacSystemFont, 'Segoe UI', Helvetica, Arial, sans-serif">Jan 8</text>
    <text x="318.1818181818182" y="370" text-anchor="middle" class="chart-muted" font-size="11" font-family="-apple-system, BlinkMacSystemFont, 'Segoe UI', Helvetica, Arial, sans-serif">Jul 8</text>
    <text x="404.24242424242425" y="370" text-anchor="middle" class="chart-muted" font-size="11" font-family="-apple-system, BlinkMacSystemFont, 'Segoe UI', Helvetica, Arial, sans-serif">Jan 5</text>
    <text x="490.3030303030303" y="370" text-anchor="middle" class="chart-muted" font-size="11" font-family="-apple-system, BlinkMacSystemFont, 'Segoe UI', Helvetica, Arial, sans-serif">Jul 6</text>
    <text x="576.3636363636364" y="370" text-anchor="middle" class="chart-muted" font-size="11" font-family="-apple-system, BlinkMacSystemFont, 'Segoe UI', Helvetica, Arial, sans-serif">Jan 4</text>
    <text x="662.4242424242425" y="370" text-anchor="middle" class="chart-muted" font-size="11" font-family="-apple-system, BlinkMacSystemFont, 'Segoe UI', Helvetica, Arial, sans-serif">Jul 4</text>
    <text x="748.4848484848485" y="370" text-anchor="middle" class="chart-muted" font-size="11" font-family="-apple-system, BlinkMacSystemFont, 'Segoe UI', Helvetica, Arial, sans-serif">Week 3</text>
    <text x="770" y="370" text-anchor="middle" class="chart-muted" font-size="11" font-family="-apple-system, BlinkMacSystemFont, 'Segoe UI', Helvetica, Arial, sans-serif">Week 4</text>
  </g>
  <line x1="60" y1="50" x2="60" y2="350" class="chart-axis" stroke-width="1" />
  <line x1="60" y1="350" x2="770" y2="350" class="chart-axis" stroke-width="1" />
  <path d="M60,350 L60,348.85057471264366 C67.17171717171718,347.3180076628352 74.34343434343434,344.2528735632184 81.51515151515152,344.2528735632184 C88.68686868686869,344.2528735632184 95.85858585858585,344.2528735632184 103.03030303030303,344.2528735632184 C110.20202020202021,344.2528735632184 117.37373737373737,344.2528735632184 124.54545454545455,344.2528735632184 C131.7171717171717,344.2528735632184 138.88888888888889,342.5287356321839 146.06060606060606,341.95402298850576 C153.23232323232324,341.3793103448276 160.4040404040404,341.57088122605364 167.57575757575756,340.8045977011494 C174.74747474747474,340.0383141762452 181.91919191919192,337.35632183908046 189.0909090909091,337.35632183908046 C196.26262626262627,337.35632183908046 203.43434343434345,337.35632183908046 210.60606060606062,337.35632183908046 C217.7777777777778,337.35632183908046 224.94949494949495,335.2490421455939 232.12121212121212,333.9080459770115 C239.2929292929293,332.56704980842915 246.46464646464645,332.18390804597703 253.63636363636363,329.3103448275862 C260.8080808080808,326.4367816091954 267.979797979798,321.264367816092 275.1515151515151,316.6666666666667 C282.3232323232323,312.0689655172414 289.4949494949495,305.17241379310343 296.66666666666663,301.7241379310345 C303.83838383838383,298.2758620689655 311.010101010101,299.23371647509583 318.1818181818182,295.9770114942529 C325.35353535353534,292.72030651341 332.52525252525254,286.0153256704981 339.6969696969697,282.18390804597703 C346.8686868686869,278.35249042145597 354.04040404040404,276.6283524904215 361.21212121212125,272.98850574712645 C368.3838383838384,269.3486590038314 375.55555555555554,265.32567049808426 382.7272727272727,260.34482758620686 C389.8989898989899,255.36398467432946 397.07070707070704,249.80842911877394 404.24242424242425,243.10344827586206 C411.4141414141414,236.3984674329502 418.5858585858586,226.24521072796935 425.75757575757575,220.11494252873564 C432.9292929292929,213.98467432950193 440.1010101010101,210.727969348659 447.27272727272725,206.32183908045977 C454.44444444444446,201.91570881226053 461.6161616161616,197.8927203065134 468.7878787878788,193.67816091954023 C475.95959595959596,189.46360153256705 483.13131313131316,185.05747126436782 490.3030303030303,181.0344827586207 C497.47474747474746,177.01149425287358 504.64646464646466,172.98850574712645 511.8181818181818,169.54022988505747 C518.989898989899,166.09195402298852 526.1616161616162,163.02681992337162 533.3333333333333,160.3448275862069 C540.5050505050505,157.66283524904213 547.6767676767677,155.55555555555557 554.8484848484849,153.44827586206898 C562.0202020202021,151.3409961685824 569.1919191919192,151.1494252873563 576.3636363636364,147.70114942528735 C583.5353535353536,144.2528735632184 590.7070707070707,136.7816091954023 597.8787878787879,132.75862068965517 C605.0505050505051,128.73563218390805 612.2222222222222,126.43678160919539 619.3939393939394,123.5632183908046 C626.5656565656566,120.68965517241378 633.7373737373738,118.00766283524902 640.909090909091,115.51724137931032 C648.0808080808082,113.02681992337163 655.2525252525253,113.79310344827589 662.4242424242425,108.62068965517241 C669.5959595959596,103.44827586206897 676.7676767676768,92.52873563218391 683.9393939393939,84.48275862068965 L683.9393939393939,350 L60,350 Z" fill="#dfb317" fill-opacity="0.1" />
  
  
  <path d="M60,350 L60,348.85057471264366 C67.17171717171718,347.3180076628352 74.34343434343434,344.2528735632184 81.51515151515152,344.2528735632184 C88.68686868686869,344.2528735632184 95.85858585858585,344.2528735632184 103.03030303030303,344.2528735632184 C110.20202020202021,344.2528735632184 117.37373737373737,344.2528735632184 124.54545454545455,344.2528735632184 C131.7171717171717,344.2528735632184 138.88888888888889,342.5287356321839 146.06060606060606,341.95402298850576 C153.23232323232324,341.3793103448276 160.4040404040404,341.57088122605364 167.57575757575756,340.8045977011494 C174.74747474747474,340.0383141762452 181.91919191919192,337.35632183908046 189.0909090909091,337.35632183908046 C196.26262626262627,337.35632183908046 203.43434343434345,337.35632183908046 210.60606060606062,337.35632183908046 C217.7777777777778,337.35632183908046 224.94949494949495,335.2490421455939 232.12121212121212,333.9080459770115 C239.2929292929293,332.56704980842915 246.46464646464645,332.18390804597703 253.63636363636363,329.3103448275862 C260.8080808080808,326.4367816091954 267.979797979798,321.264367816092 275.1515151515151,316.6666666666667 C282.3232323232323,312.0689655172414 289.4949494949495,305.17241379310343 296.66666666666663,301.7241379310345 C303.83838383838383,298.2758620689655 311.010101010101,299.23371647509583 318.1818181818182,295.9770114942529 C325.35353535353534,292.72030651341 332.52525252525254,286.0153256704981 339.6969696969697,282.18390804597703 C346.8686868686869,278.35249042145597 354.04040404040404,276.6283524904215 361.21212121212125,272.98850574712645 C368.3838383838384,269.3486590038314 375.55555555555554,265.32567049808426 382.7272727272727,260.34482758620686 C389.8989898989899,255.36398467432946 397.07070707070704,249.80842911877394 404.24242424242425,243.10344827586206 C411.4141414141414,236.3984674329502 418.5858585858586,226.24521072796935 425.75757575757575,220.11494252873564 C432.9292929292929,213.98467432950193 440.1010101010101,210.727969348659 447.27272727272725,206.32183908045977 C454.44444444444446,201.91570881226053 461.6161616161616,197.8927203065134 468.7878787878788,193.67816091954023 C475.95959595959596,189.46360153256705 483.13131313131316,185.05747126436782 490.3030303030303,181.0344827586207 C497.47474747474746,177.01149425287358 504.64646464646466,172.98850574712645 511.8181818181818,169.54022988505747 C518.989898989899,166.09195402298852 526.1616161616162,163.02681992337162 533.3333333333333,160.3448275862069 C540.5050505050505,157.66283524904213 547.6767676767677,155.55555555555557 554.8484848484849,153.44827586206898 C562.0202020202021,151.3409961685824 569.1919191919192,151.1494252873563 576.3636363636364,147.70114942528735 C583.5353535353536,144.2528735632184 590.7070707070707,136.7816091954023 597.8787878787879,132.75862068965517 C605.0505050505051,128.73563218390805 612.2222222222222,126.43678160919539 619.3939393939394,123.5632183908046 C626.5656565656566,120.68965517241378 633.7373737373738,118.00766283524902 640.909090909091,115.51724137931032 C648.0808080808082,113.02681992337163 655.2525252525253,113.79310344827589 662.4242424242425,108.62068965517241 C669.5959595959596,103.44827586206897 676.7676767676768,92.52873563218391 683.9393939393939,84.48275862068965" fill="none" stroke="#dfb317" stroke-width="2.5" class="data-line-0" />
  <path d="M683.9393939393939,84.48275862068965 C691.1111111111111,84.09961685823755 698.2828282828282,83.90804597701153 705.4545454545454,83.33333333333337 C712.6262626262626,82.75862068965522 719.7979797979798,81.60919540229887 726.969696969697,81.0344827586207 C734.1414141414142,80.45977011494253 741.3131313131313,80.26819923371646 748.4848484848485,79.88505747126436 C755.6565656565657,79.50191570881226 762.8282828282828,79.11877394636018 770,78.73563218390808" fill="none" stroke="#28a745" stroke-width="2.5" stroke-dasharray="8,4" />
  <path d="M683.9393939393939,84.48275862068965 C691.1111111111111,84.09961685823755 698.2828282828282,83.90804597701153 705.4545454545454,83.33333333333337 C712.6262626262626,82.75862068965522 719.7979797979798,81.60919540229887 726.969696969697,81.0344827586207 C734.1414141414142,80.45977011494253 741.3131313131313,80.45977011494251 748.4848484848485,79.88505747126436 C755.6565656565657,79.3103448275862 762.8282828282828,78.35249042145595 770,77.58620689655174" fill="none" stroke="#d73a49" stroke-width="2.5" stroke-dasharray="8,4" />
  <g class="points">
    
    <circle cx="60" cy="348.85057471264366" r="4" fill="#dfb317" class="data-point" style="animation-delay: 1.50s" />
    <circle cx="81.51515151515152" cy="344.2528735632184" r="4" fill="#dfb317" class="data-point" style="animation-delay: 1.55s" />
    <circle cx="103.03030303030303" cy="344.2528735632184" r="4" fill="#dfb317" class="data-point" style="animation-delay: 1.60s" />
    <circle cx="124.54545454545455" cy="344.2528735632184" r="4" fill="#dfb317" class="data-point" style="animation-delay: 1.65s" />
    <circle cx="146.06060606060606" cy="341.95402298850576" r="4" fill="#dfb317" class="data-point" style="animation-delay: 1.70s" />
    <circle cx="167.57575757575756" cy="340.8045977011494" r="4" fill="#dfb317" class="data-point" style="animation-delay: 1.75s" />
    <circle cx="189.0909090909091" cy="337.35632183908046" r="4" fill="#dfb317" class="data-point" style="animation-delay: 1.80s" />
    <circle cx="210.60606060606062" cy="337.35632183908046" r="4" fill="#dfb317" class="data-point" style="animation-delay: 1.85s" />
    <circle cx="232.12121212121212" cy="333.9080459770115" r="4" fill="#dfb317" class="data-point" style="animation-delay: 1.90s" />
    <circle cx="253.63636363636363" cy="329.3103448275862" r="4" fill="#dfb317" class="data-point" style="animation-delay: 1.95s" />
    <circle cx="275.1515151515151" cy="316.6666666666667" r="4" fill="#dfb317" class="data-point" style="animation-delay: 2.00s" />
    <circle cx="296.66666666666663" cy="301.7241379310345" r="4" fill="#dfb317" class="data-point" style="animation-delay: 2.05s" />
    <circle cx="318.1818181818182" cy="295.9770114942529" r="4" fill="#dfb317" class="data-point" style="animation-delay: 2.10s" />
    <circle cx="339.6969696969697" cy="282.18390804597703" r="4" fill="#dfb317" class="data-point" style="animation-delay: 2.15s" />
    <circle cx="361.21212121212125" cy="272.98850574712645" r="4" fill="#dfb317" class="data-point" style="animation-delay: 2.20s" />
    <circle cx="382.7272727272727" cy="260.34482758620686" r="4" fill="#dfb317" class="data-point" style="animation-delay: 2.25s" />
    <circle cx="404.24242424242425" cy="243.10344827586206" r="4" fill="#dfb317" class="data-point" style="animation-delay: 2.30s" />
    <circle cx="425.75757575757575" cy="220.11494252873564" r="4" fill="#dfb317" class="data-point" style="animation-delay: 2.35s" />
    <circle cx="447.27272727272725" cy="206.32183908045977" r="4" fill="#dfb317" class="data-point" style="animation-delay: 2.40s" />
    <circle cx="468.7878787878788" cy="193.67816091954023" r="4" fill="#dfb317" class="data-point" style="animation-delay: 2.45s" />
    <circle cx="490.3030303030303" cy="181.0344827586207" r="4" fill="#dfb317" class="data-point" style="animation-delay: 2.50s" />
    <circle cx="511.8181818181818" cy="169.54022988505747" r="4" fill="#dfb317" class="data-point" style="animation-delay: 2.55s" />
    <circle cx="533.3333333333333" cy="160.3448275862069" r="4" fill="#dfb317" class="data-point" style="animation-delay: 2.60s" />
    <circle cx="554.8484848484849" cy="153.44827586206898" r="4" fill="#dfb317" class="data-point" style="animation-delay: 2.65s" />
    <circle cx="576.3636363636364" cy="147.70114942528735" r="4" fill="#dfb317" class="data-point" style="animation-delay: 2.70s" />
    <circle cx="597.8787878787879" cy="132.75862068965517" r="4" fill="#dfb317" class="data-point" style="animation-delay: 2.75s" />
    <circle cx="619.3939393939394" cy="123.5632183908046" r="4" fill="#dfb317" class="data-point" style="animation-delay: 2.80s" />
    <circle cx="640.909090909091" cy="115.51724137931032" r="4" fill="#dfb317" class="data-point" style="animation-delay: 2.85s" />
    <circle cx="662.4242424242425" cy="108.62068965517241" r="4" fill="#dfb317" class="data-point" style="animation-delay: 2.90s" />
    <circle cx="683.9393939393939" cy="84.48275862068965" r="4" fill="#dfb317" class="data-point" style="animation-delay: 2.95s" />
  </g>
</svg>