<svg xmlns="http://www.w3.org/2000/svg" viewBox="0 0 800 400" width="800" height="400">
  <style>
    @keyframes drawLine {
      to { stroke-dashoffset: 0; }
    }
    @keyframes fadeInPoint {
      from { opacity: 0; }
      to { opacity: 1; }
    }
    .data-line-0 {
      stroke-dasharray: 1046;
      stroke-dashoffset: 1046;
      animation: drawLine 2s ease-out forwards;
    }
    .data-point {
      opacity: 0;
      animation: fadeInPoint 0.5s ease-out forwards;
    }
    .chart-bg { fill: #fff; }
    .chart-text { fill: #24292e; }
    .chart-muted { fill: #6a737d; }
    .chart-grid { stroke: #eee; }
    .chart-axis { stroke: #6a737d; }
    @media (prefers-color-scheme: dark) {
      .chart-bg { fill: #0d1117; }
      .chart-text { fill: #e6edf3; }
      .chart-muted { fill: #8b949e; }
      .chart-grid { stroke: #21262d; }
      .chart-axis { stroke: #8b949e; }
    }
  </style>
  <rect width="800" height="400" class="chart-bg" />
  <text x="400" y="14" text-anchor="middle" class="chart-text" font-size="16" font-weight="bold" font-family="-apple-system, BlinkMacSystemFont, 'Segoe UI', Helvetica, Arial, sans-serif">Growth Forecast</text>
  <g class="legend">
    <rect x="220" y="31" width="12" height="3" fill="#dfb317" />
    <line x1="220" y1="32.5" x2="232" y2="32.5" stroke="#dfb317" stroke-width="2" />
    <text x="236" y="36" class="chart-text" font-size="10" font-family="-apple-system, BlinkMacSystemFont, 'Segoe UI', Helvetica, Arial, sans-serif">Star History</text>
    <rect x="340" y="31" width="12" height="3" fill="#28a745" rx="1" />
    <line x1="340" y1="32.5" x2="352" y2="32.5" stroke="#28a745" stroke-width="2" stroke-dasharray="4,2" />
    <text x="356" y="36" class="chart-text" font-size="10" font-family="-apple-system, BlinkMacSystemFont, 'Segoe UI', Helvetica, Arial, sans-serif">Linear Regression</text>
    <rect x="460" y="31" width="12" height="3" fill="#d73a49" rx="1" />
    <line x1="460" y1="32.5" x2="472" y2="32.5" stroke="#d73a49" stroke-width="2" stroke-dasharray="4,2" />
    <text x="476" y="36" class="chart-text" font-size="10" font-family="-apple-system, BlinkMacSystemFont, 'Segoe UI', Helvetica, Arial, sans-serif">Weighted Moving Average</text>
  </g>
  <g class="grid">
    <line x1="60" y1="350" x2="770" y2="350" class="chart-grid" stroke-opacity="0.3" />
    <text x="52" y="354" text-anchor="end" class="chart-muted" font-size="11" font-family="-apple-system, BlinkMacSystemFont, 'Segoe UI', Helvetica, Arial, sans-serif">0</text>
    <line x1="60" y1="291.86046511627904" x2="770" y2="291.86046511627904" class="chart-grid" stroke-opacity="0.3" />
    <text x="52" y="295.86046511627904" text-anchor="end" class="chart-muted" font-size="11" font-family="-apple-system, BlinkMacSystemFont, 'Segoe UI', Helvetica, Arial, sans-serif">50</text>
    <line x1="60" y1="233.72093023255815" x2="770" y2="233.72093023255815" class="chart-grid" stroke-opacity="0.3" />
    <text x="52" y="237.72093023255815" text-anchor="end" class="chart-muted" font-size="11" font-family="-apple-system, BlinkMacSystemFont, 'Segoe UI', Helvetica, Arial, sans-serif">100</text>
    <line x1="60" y1="175.5813953488372" x2="770" y2="175.5813953488372" class="chart-grid" stroke-opacity="0.3" />
    <text x="52" y="179.5813953488372" text-anchor="end" class="chart-muted" font-size="11" font-family="-apple-system, BlinkMacSystemFont, 'Segoe UI', Helvetica, Arial, sans-serif">150</text>
    <line x1="60" y1="117.44186046511626" x2="770" y2="117.44186046511626" class="chart-grid" stroke-opacity="0.3" />
    <text x="52" y="121.44186046511626" text-anchor="end" class="chart-muted" font-size="11" font-family="-apple-system, BlinkMacSystemFont, 'Segoe UI', Helvetica, Arial, sans-serif">200</text>
    <line x1="60" y1="59.302325581395394" x2="770" y2="59.302325581395394" class="chart-grid" stroke-opacity="0.3" />
    <text x="52" y="63.302325581395394" text-anchor="end" class="chart-muted" font-size="11" font-family="-apple-system, BlinkMacSystemFont, 'Segoe UI', Helvetica, Arial, sans-serif">250</text>
  </g>
  <g class="milestones">
    
  </g>
  <g class="x-axis">
    <text x="60" y="370" text-anchor="middle" class="chart-muted" font-size="11" font-family="-apple-system, BlinkMacSystemFont, 'Segoe UI', Helvetica, Arial, sans-serif">Jan 10</text>
    <text x="146.06060606060606" y="370" text-anchor="middle" class="chart-muted" font-size="11" font-family="-apple-system, BlinkMacSystemFont, 'Segoe UI', Helvetica, Arial, sans-serif">Jul 10</text>
    <text x="232.12121212121212" y="370" text-anchor="middle" class="chart-muted" font-size="11" font-family="-apple-system, BlinkMacSystemFont, 'Segoe UI', Helvetica, Arial, sans-serif">Jan 7</text>
    <text x="318.1818181818182" y="370" text-anchor="middle" class="chart-muted" font-size="11" font-family="-apple-system, BlinkMacSystemFont, 'Segoe UI', Helvetica, Arial, sans-serif">Jul 6</text>
    <text x="404.24242424242425" y="370" text-anchor="middle" class="chart-muted" font-size="11" font-family="-apple-system, BlinkMacSystemFont, 'Segoe UI', Helvetica, Arial, sans-serif">Jan 3</text>
    <text x="490.3030303030303" y="370" text-anchor="middle" class="chart-muted" font-size="11" font-family="-apple-system, BlinkMacSystemFont, 'Segoe UI', Helvetica, Arial, sans-serif">Jul 3</text>
    <text x="576.3636363636364" y="370" text-anchor="middle" class="chart-muted" font-size="11" font-family="-apple-system, BlinkMacSystemFont, 'Segoe UI', Helvetica, Arial, sans-serif">Dec 31</text>
    <text x="662.4242424242425" y="370" text-anchor="middle" class="chart-muted" font-size="11" font-family="-apple-system, BlinkMacSystemFont, 'Segoe UI', Helvetica, Arial, sans-serif">Jun 30</text>
    <text x="748.4848484848485" y="370" text-anchor="middle" class="chart-muted" font-size="11" font-family="-apple-system, BlinkMacSystemFont, 'Segoe UI', Helvetica, Arial, sans-serif">Week 3</text>
    <text x="770" y="370" text-anchor="middle" class="chart-muted" font-size="11" font-family="-apple-system, BlinkMacSystemFont, 'Segoe UI', Helvetica, Arial, sans-serif">Week 4</text>
  </g>
  <line x1="60" y1="50" x2="60" y2="350" class="chart-axis" stroke-width="1" />
  <line x1="60" y1="350" x2="770" y2="350" class="chart-axis" stroke-width="1" />
  <path d="M60,350 L60,348.83720930232556 C67.17171717171718,347.28682170542635 74.34343434343434,344.1860465116279 81.51515151515152,344.1860465116279 C88.68686868686869,344.1860465116279 95.85858585858585,344.1860465116279 103.03030303030303,344.1860465116279 C110.20202020202021,344.1860465116279 117.37373737373737,344.1860465116279 124.54545454545455,344.1860465116279 C131.7171717171717,344.1860465116279 138.88888888888889,342.44186046511624 146.06060606060606,341.86046511627904 C153.23232323232324,341.27906976744185 160.4040404040404,341.47286821705427 167.57575757575756,340.69767441860466 C174.74747474747474,339.92248062015506 181.91919191919192,337.2093023255814 189.0909090909091,337.2093023255814 C196.26262626262627,337.2093023255814 203.43434343434345,337.2093023255814 210.60606060606062,337.2093023255814 C217.7777777777778,337.2093023255814 224.94949494949495,335.07751937984494 232.12121212121212,333.72093023255815 C239.2929292929293,332.36434108527135 246.46464646464645,331.9767441860465 253.63636363636363,329.06976744186045 C260.8080808080808,326.1627906976744 267.979797979798,320.73643410852713 275.1515151515151,316.27906976744185 C282.3232323232323,311.8217054263566 289.4949494949495,305.8139534883721 296.66666666666663,302.3255813953488 C303.83838383838383,298.83720930232556 311.010101010101,298.8372093023256 318.1818181818182,295.34883720930236 C325.35353535353534,291.8604651162791 332.52525252525254,285.2713178294574 339.6969696969697,281.3953488372093 C346.8686868686869,277.51937984496124 354.04040404040404,275.38759689922483 361.21212121212125,272.09302325581393 C368.3838383838384,268.7984496124031 375.55555555555554,266.08527131782944 382.7272727272727,261.62790697674416 C389.8989898989899,257.1705426356589 397.07070707070704,251.93798449612402 404.24242424242425,245.3488372093023 C411.4141414141414,238.75968992248062 418.5858585858586,228.68217054263567 425.75757575757575,222.09302325581396 C432.9292929292929,215.50387596899225 440.1010101010101,210.85271317829455 447.27272727272725,205.81395348837208 C454.44444444444446,200.77519379844958 461.6161616161616,196.31782945736433 468.7878787878788,191.86046511627904 C475.95959595959596,187.4031007751938 483.13131313131316,183.1395348837209 490.3030303030303,179.06976744186045 C497.47474747474746,175 504.64646464646466,170.73643410852713 511.8181818181818,167.4418604651163 C518.989898989899,164.14728682170545 526.1616161616162,162.01550387596896 533.3333333333333,159.30232558139534 C540.5050505050505,156.58914728682169 547.6767676767677,153.29457364341087 554.8484848484849,151.16279069767444 C562.0202020202021,149.031007751938 569.1919191919192,149.6124031007752 576.3636363636364,146.51162790697674 C583.5353535353536,143.4108527131783 590.7070707070707,136.6279069767442 597.8787878787879,132.55813953488374 C605.0505050505051,128.48837209302326 612.2222222222222,125.3875968992248 619.3939393939394,122.09302325581396 C626.5656565656566,118.7984496124031 633.7373737373738,115.50387596899228 640.909090909091,112.79069767441862 C648.0808080808082,110.07751937984499 655.2525252525253,110.46511627906978 662.4242424242425,105.81395348837208 C669.5959595959596,101.1627906976744 676.7676767676768,91.86046511627904 683.9393939393939,84.88372093023253 L683.9393939393939,350 L60,350 Z" fill="#dfb317" fill-opacity="0.1" />
  
  
  <path d="M60,350 L60,348.83720930232556 C67.17171717171718,347.28682170542635 74.34343434343434,344.1860465116279 81.51515151515152,344.1860465116279 C88.68686868686869,344.1860465116279 95.85858585858585,344.1860465116279 103.03030303030303,344.1860465116279 C110.20202020202021,344.1860465116279 117.37373737373737,344.1860465116279 124.54545454545455,344.1860465116279 C131.7171717171717,344.1860465116279 138.88888888888889,342.44186046511624 146.06060606060606,341.86046511627904 C153.23232323232324,341.27906976744185 160.4040404040404,341.47286821705427 167.57575757575756,340.69767441860466 C174.74747474747474,339.92248062015506 181.91919191919192,337.2093023255814 189.0909090909091,337.2093023255814 C196.26262626262627,337.2093023255814 203.43434343434345,337.2093023255814 210.60606060606062,337.2093023255814 C217.7777777777778,337.2093023255814 224.94949494949495,335.07751937984494 232.12121212121212,333.72093023255815 C239.2929292929293,332.36434108527135 246.46464646464645,331.9767441860465 253.63636363636363,329.06976744186045 C260.8080808080808,326.1627906976744 267.979797979798,320.73643410852713 275.1515151515151,316.27906976744185 C282.3232323232323,311.8217054263566 289.4949494949495,305.8139534883721 296.66666666666663,302.3255813953488 C303.83838383838383,298.83720930232556 311.010101010101,298.8372093023256 318.1818181818182,295.34883720930236 C325.35353535353534,291.8604651162791 332.52525252525254,285.2713178294574 339.6969696969697,281.3953488372093 C346.8686868686869,277.51937984496124 354.04040404040404,275.38759689922483 361.21212121212125,272.09302325581393 C368.3838383838384,268.7984496124031 375.55555555555554,266.08527131782944 382.7272727272727,261.62790697674416 C389.8989898989899,257.1705426356589 397.07070707070704,251.93798449612402 404.24242424242425,245.3488372093023 C411.4141414141414,238.75968992248062 418.5858585858586,228.68217054263567 425.75757575757575,222.09302325581396 C432.9292929292929,215.50387596899225 440.1010101010101,210.85271317829455 447.27272727272725,205.81395348837208 C454.44444444444446,200.77519379844958 461.6161616161616,196.31782945736433 468.7878787878788,191.86046511627904 C475.95959595959596,187.4031007751938 483.13131313131316,183.1395348837209 490.3030303030303,179.06976744186045 C497.47474747474746,175 504.64646464646466,170.73643410852713 511.8181818181818,167.4418604651163 C518.989898989899,164.14728682170545 526.1616161616162,162.01550387596896 533.3333333333333,159.30232558139534 C540.5050505050505,156.58914728682169 547.6767676767677,153.29457364341087 554.8484848484849,151.16279069767444 C562.0202020202021,149.031007751938 569.1919191919192,149.6124031007752 576.3636363636364,146.51162790697674 C583.5353535353536,143.4108527131783 590.7070707070707,136.6279069767442 597.8787878787879,132.55813953488374 C605.0505050505051,128.48837209302326 612.2222222222222,125.3875968992248 619.3939393939394,122.09302325581396 C626.5656565656566,118.7984496124031 633.7373737373738,115.50387596899228 640.909090909091,112.79069767441862 C648.0808080808082,110.07751937984499 655.2525252525253,110.46511627906978 662.4242424242425,105.81395348837208 C669.5959595959596,101.1627906976744 676.7676767676768,91.86046511627904 683.9393939393939,84.88372093023253" fill="none" stroke="#dfb317" stroke-width="2.5" class="data-line-0" />
  <path d="M683.9393939393939,84.88372093023253 C691.1111111111111,84.49612403100774 698.2828282828282,84.30232558139535 705.4545454545454,83.72093023255815 C712.6262626262626,83.13953488372094 719.7979797979798,81.97674418604647 726.969696969697,81.39534883720927 C734.1414141414142,80.81395348837206 741.3131313131313,80.62015503875969 748.4848484848485,80.23255813953489 C755.6565656565657,79.84496124031008 762.8282828282828,79.45736434108527 770,79.06976744186045" fill="none" stroke="#28a745" stroke-width="2.5" stroke-dasharray="8,4" />
  <path d="M683.9393939393939,84.88372093023253 C691.1111111111111,84.49612403100774 698.2828282828282,84.30232558139535 705.4545454545454,83.72093023255815 C712.6262626262626,83.13953488372094 719.7979797979798,81.97674418604647 726.969696969697,81.39534883720927 C734.1414141414142,80.81395348837206 741.3131313131313,80.81395348837209 748.4848484848485,80.23255813953489 C755.6565656565657,79.65116279069768 762.8282828282828,78.68217054263567 770,77.90697674418607" fill="none" stroke="#d73a49" stroke-width="2.5" stroke-dasharray="8,4" />
  <g class="points">
    
    <circle cx="60" cy="348.83720930232556" r="4" fill="#dfb317" class="data-point" style="animation-delay: 1.50s" />
    <circle cx="81.51515151515152" cy="344.1860465116279" r="4" fill="#dfb317" class="data-point" style="animation-delay: 1.55s" />
    <circle cx="103.03030303030303" cy="344.1860465116279" r="4" fill="#dfb317" class="data-point" style="animation-delay: 1.60s" />
    <circle cx="124.54545454545455" cy="344.1860465116279" r="4" fill="#dfb317" class="data-point" style="animation-delay: 1.65s" />
    <circle cx="146.06060606060606" cy="341.86046511627904" r="4" fill="#dfb317" class="data-point" style="animation-delay: 1.70s" />
    <circle cx="167.57575757575756" cy="340.69767441860466" r="4" fill="#dfb317" class="data-point" style="animation-delay: 1.75s" />
    <circle cx="189.0909090909091" cy="337.2093023255814" r="4" fill="#dfb317" class="data-point" style="animation-delay: 1.80s" />
    <circle cx="210.60606060606062" cy="337.2093023255814" r="4" fill="#dfb317" class="data-point" style="animation-delay: 1.85s" />
    <circle cx="232.12121212121212" cy="333.72093023255815" r="4" fill="#dfb317" class="data-point" style="animation-delay: 1.90s" />
    <circle cx="253.63636363636363" cy="329.06976744186045" r="4" fill="#dfb317" class="data-point" style="animation-delay: 1.95s" />
    <circle cx="275.1515151515151" cy="316.27906976744185" r="4" fill="#dfb317" class="data-point" style="animation-delay: 2.00s" />
    <circle cx="296.66666666666663" cy="302.3255813953488" r="4" fill="#dfb317" class="data-point" style="animation-delay: 2.05s" />
    <circle cx="318.1818181818182" cy="295.34883720930236" r="4" fill="#dfb317" class="data-point" style="animation-delay: 2.10s" />
    <circle cx="339.6969696969697" cy="281.3953488372093" r="4" fill="#dfb317" class="data-point" style="animation-delay: 2.15s" />
    <circle cx="361.21212121212125" cy="272.09302325581393" r="4" fill="#dfb317" class="data-point" style="animation-delay: 2.20s" />
    <circle cx="382.7272727272727" cy="261.62790697674416" r="4" fill="#dfb317" class="data-point" style="animation-delay: 2.25s" />
    <circle cx="404.24242424242425" cy="245.3488372093023" r="4" fill="#dfb317" class="data-point" style="animation-delay: 2.30s" />
    <circle cx="425.75757575757575" cy="222.09302325581396" r="4" fill="#dfb317" class="data-point" style="animation-delay: 2.35s" />
    <circle cx="447.27272727272725" cy="205.81395348837208" r="4" fill="#dfb317" class="data-point" style="animation-delay: 2.40s" />
    <circle cx="468.7878787878788" cy="191.86046511627904" r="4" fill="#dfb317" class="data-point" style="animation-delay: 2.45s" />
    <circle cx="490.3030303030303" cy="179.06976744186045" r="4" fill="#dfb317" class="data-point" style="animation-delay: 2.50s" />
    <circle cx="511.8181818181818" cy="167.4418604651163" r="4" fill="#dfb317" class="data-point" style="animation-delay: 2.55s" />
    <circle cx="533.3333333333333" cy="159.30232558139534" r="4" fill="#dfb317" class="data-point" style="animation-delay: 2.60s" />
    <circle cx="554.8484848484849" cy="151.16279069767444" r="4" fill="#dfb317" class="data-point" style="animation-delay: 2.65s" />
    <circle cx="576.3636363636364" cy="146.51162790697674" r="4" fill="#dfb317" class="data-point" style="animation-delay: 2.70s" />
    <circle cx="597.8787878787879" cy="132.55813953488374" r="4" fill="#dfb317" class="data-point" style="animation-delay: 2.75s" />
    <circle cx="619.3939393939394" cy="122.09302325581396" r="4" fill="#dfb317" class="data-point" style="animation-delay: 2.80s" />
    <circle cx="640.909090909091" cy="112.79069767441862" r="4" fill="#dfb317" class="data-point" style="animation-delay: 2.85s" />
    <circle cx="662.4242424242425" cy="105.81395348837208" r="4" fill="#dfb317" class="data-point" style="animation-delay: 2.90s" />
    <circle cx="683.9393939393939" cy="84.88372093023253" r="4" fill="#dfb317" class="data-point" style="animation-delay: 2.95s" />
  </g>
</svg>